<svg xmlns="http://www.w3.org/2000/svg" xmlns:xlink="http://www.w3.org/1999/xlink" width="96" height="96" viewBox="0 0 96 96" fill="none"><g opacity="1"  transform="translate(0 0)  rotate(0)"><path id="路径 1" fill-rule="evenodd" style="fill:#01ABFF" opacity="1" d="M0 96L64 96L64 72L24 72L24 32L0 32L0 96Z"></path><path  id="路径 1" style="fill:#000000; opacity:1;"></path><path id="路径 2" fill-rule="evenodd" style="fill:#01ABFF" opacity="1" d="M32 24L72 24L72 64L96 64L96 0L32 0L32 24Z"></path><path  id="路径 2" style="fill:#000000; opacity:1;"></path><path id="路径 3" fill-rule="evenodd" style="fill:#6A9C37" opacity="1" d="M2 32L22 32L22 22L32 22L32 2L2 2L2 32Z"></path><path  id="路径 3" style="fill:#000000; opacity:1;"></path><path id="路径 4" fill-rule="evenodd" style="fill:#6A9C37" opacity="1" d="M74 74L64 74L64 94L94 94L94 64L74 64L74 74Z"></path><path  id="路径 4" style="fill:#000000; opacity:1;"></path></g></svg>