<?xml version="1.0" standalone="no"?><!DOCTYPE svg PUBLIC "-//W3C//DTD SVG 1.1//EN" "http://www.w3.org/Graphics/SVG/1.1/DTD/svg11.dtd"><svg height="1024" node-id="1" sillyvg="true" template-height="1024" template-width="1631" version="1.1" viewBox="0 0 1631 1024" width="1631" xmlns="http://www.w3.org/2000/svg" xmlns:xlink="http://www.w3.org/1999/xlink"><defs node-id="25"></defs><g node-id="27"><g node-id="28"><path d="M 549.80 880.24 L 585.79 880.25 L 632.63 880.22 L 688.07 880.04 L 749.86 879.59 L 815.74 878.77 L 883.48 877.48 L 917.44 876.61 L 950.82 875.59 L 983.87 874.39 L 1015.52 873.01 L 1046.54 871.41 L 1075.32 869.63 L 1103.18 867.55 L 1127.97 865.32 L 1151.55 862.72 L 1171.24 860.00 L 1183.92 857.84 L 1194.37 855.68 L 1202.86 853.54 L 1243.76 842.36 L 1280.96 832.69 L 1349.40 815.51 L 1380.59 807.49 L 1408.30 799.89 L 1426.31 794.53 L 1442.78 789.15 L 1457.78 783.74 L 1469.02 779.26 L 1479.43 774.63 L 1489.08 769.86 L 1497.98 764.97 L 1505.05 760.65 L 1511.68 756.13 L 1517.87 751.43 L 1523.64 746.55 L 1529.03 741.47 L 1534.13 736.06 L 1538.87 730.34 L 1543.27 724.29 L 1547.33 717.90 L 1551.04 711.16 L 1554.27 704.33 L 1557.21 697.02 L 1559.85 689.21 L 1562.17 680.85 L 1564.16 671.92 L 1565.66 663.27 L 1566.86 653.96 L 1567.76 643.95 L 1568.31 633.20 L 1568.50 621.67 L 1568.26 607.18 L 1567.50 592.59 L 1566.22 577.90 L 1564.41 563.09 L 1562.08 548.40 L 1559.20 533.77 L 1555.77 519.20 L 1551.77 504.69 L 1547.21 490.36 L 1542.07 476.25 L 1536.34 462.36 L 1530.02 448.67 L 1524.53 437.93 L 1518.65 427.43 L 1512.37 417.15 L 1505.69 407.09 L 1498.60 397.25 L 1491.14 387.72 L 1483.25 378.50 L 1474.93 369.58 L 1466.17 360.96 L 1456.96 352.62 L 1447.45 344.76 L 1437.47 337.28 L 1427.00 330.16 L 1416.03 323.40 L 1404.53 317.01 L 1394.06 311.80 L 1383.19 306.87 L 1371.89 302.21 L 1360.17 297.84 L 1347.99 293.75 L 1332.81 289.20 L 1317.02 285.01 L 1300.57 281.19 L 1283.46 277.75 L 1266.45 274.78 L 1248.87 272.10 L 1230.69 269.72 L 1211.90 267.66 L 1186.95 265.41 L 1161.09 263.57 L 1134.28 262.15 L 1107.49 261.11 L 1079.92 260.35 L 1051.58 259.87 L 1008.85 259.53 L 964.75 259.49 L 874.76 259.66 L 860.67 259.35 L 846.76 258.48 L 833.03 257.08 L 819.47 255.13 L 805.95 252.70 L 792.57 249.85 L 779.33 246.59 L 766.22 242.91 L 748.89 237.46 L 731.78 231.50 L 714.88 225.03 L 698.14 218.14 L 681.62 210.98 L 665.30 203.54 L 641.05 192.05 L 617.33 180.48 L 593.79 168.94 L 570.82 157.89 L 555.48 150.74 L 540.42 144.05 L 525.63 137.81 L 510.68 131.96 L 496.01 126.79 L 481.61 122.29 L 470.66 119.31 L 459.85 116.84 L 449.17 114.86 L 438.62 113.36 L 427.96 112.38 L 417.40 112.01 L 406.92 112.24 L 396.49 113.07 L 388.23 114.20 L 379.98 115.80 L 371.71 117.86 L 363.42 120.42 L 355.10 123.46 L 346.97 126.97 L 338.80 130.97 L 330.59 135.48 L 322.32 140.51 L 314.00 146.08 L 304.07 153.37 L 294.11 161.33 L 284.13 169.99 L 274.11 179.40 L 264.52 189.04 L 254.97 199.23 L 245.46 210.00 L 235.99 221.36 L 223.87 236.80 L 211.95 252.98 L 200.22 269.91 L 188.95 287.16 L 178.00 304.85 L 167.37 323.00 L 157.15 341.38 L 147.37 359.90 L 138.01 378.56 L 129.04 397.41 L 120.61 416.08 L 112.71 434.55 L 105.18 453.20 L 98.30 471.32 L 92.04 488.91 L 86.16 506.68 L 81.01 523.56 L 76.56 539.59 L 72.55 555.79 L 69.34 570.74 L 66.86 584.53 L 65.34 595.14 L 64.30 604.82 L 63.70 613.65 L 63.50 621.67 L 63.63 639.70 L 64.09 656.50 L 64.86 672.12 L 65.90 686.64 L 67.40 701.50 L 69.30 715.27 L 71.57 728.01 L 74.18 739.78 L 76.75 749.36 L 79.63 758.37 L 82.81 766.84 L 86.26 774.80 L 89.99 782.28 L 94.22 789.65 L 98.83 796.61 L 103.82 803.20 L 109.20 809.43 L 114.99 815.31 L 121.08 820.75 L 127.68 825.95 L 134.81 830.90 L 142.51 835.59 L 150.80 840.03 L 159.04 843.92 L 167.94 847.63 L 177.56 851.17 L 187.92 854.50 L 199.09 857.63 L 212.66 860.91 L 227.53 863.96 L 243.77 866.76 L 261.48 869.28 L 278.74 871.31 L 297.46 873.15 L 317.73 874.77 L 339.64 876.15 L 368.50 877.53 L 400.29 878.63 L 435.19 879.41 L 488.80 880.04 L 549.80 880.24 Z" fill="#f0f1f9" fill-rule="evenodd" group-id="1,2" id="椭圆形" node-id="7" stroke="none" target-height="768.24274" target-width="1505" target-x="63.5" target-y="112.006874"></path><path d="M 286.29 453.16 L 296.59 199.14 L 296.98 194.93 L 297.73 190.90 L 298.83 187.04 L 300.29 183.33 L 302.10 179.75 L 304.19 176.41 L 306.57 173.30 L 309.24 170.39 L 312.16 167.74 L 315.29 165.38 L 318.64 163.31 L 322.22 161.52 L 325.94 160.07 L 329.81 158.99 L 333.84 158.26 L 338.05 157.90 L 1271.35 125.03 L 1275.82 125.11 L 1280.10 125.61 L 1284.22 126.51 L 1288.20 127.82 L 1292.05 129.51 L 1295.65 131.53 L 1299.03 133.87 L 1302.19 136.55 L 1305.08 139.51 L 1307.65 142.71 L 1309.92 146.17 L 1311.88 149.89 L 1313.47 153.76 L 1314.66 157.81 L 1315.45 162.05 L 1315.85 166.50 L 1315.88 168.01 L 1315.88 777.83 L 1315.56 786.76 L 1314.68 795.44 L 1313.25 803.89 L 1311.27 812.13 L 1308.73 820.26 L 1305.72 828.10 L 1302.23 835.66 L 1298.26 842.96 L 1293.82 850.00 L 1288.98 856.69 L 1283.74 863.04 L 1278.08 869.07 L 1272.05 874.73 L 1265.70 879.97 L 1259.01 884.81 L 1251.97 889.25 L 1244.67 893.22 L 1237.11 896.71 L 1229.27 899.72 L 1221.14 902.26 L 1212.90 904.24 L 1204.45 905.67 L 1195.77 906.55 L 1186.84 906.87 L 1181.81 906.77 L 833.17 893.16 L 833.17 893.16 L 298.21 912.00 L 298.21 810.67" fill="#ffffff" fill-rule="evenodd" group-id="1,2" id="矩形" node-id="8" stroke="#555555" stroke-linecap="butt" stroke-width="7.1685357" target-height="786.97076" target-width="1029.5864" target-x="286.2886" target-y="125.02924"></path><path d="M 1121.07 396.69 L 1123.99 396.82 L 1126.71 397.50 L 1129.22 398.68 L 1131.43 400.31 L 1133.30 402.32 L 1134.76 404.68 L 1135.74 407.30 L 1136.20 410.19 L 1136.19 411.98 L 1135.96 413.74 L 1135.96 413.74 L 1114.71 523.03 L 1114.00 525.48 L 1112.92 527.69 L 1111.49 529.67 L 1109.75 531.36 L 1107.76 532.74 L 1105.55 533.77 L 1103.17 534.41 L 1100.63 534.63 L 1100.63 534.63 L 649.38 534.63 L 646.47 534.34 L 643.80 533.51 L 641.36 532.18 L 639.24 530.43 L 637.49 528.31 L 636.17 525.88 L 635.34 523.20 L 635.04 520.29 L 635.04 520.29 L 635.04 437.86 L 635.32 435.06 L 636.09 432.48 L 637.32 430.10 L 638.96 428.02 L 640.95 426.26 L 643.25 424.90 L 645.79 423.98 L 648.57 423.55 L 648.57 423.55 Z" fill="#ffffff" fill-rule="evenodd" group-id="1,2" id="矩形" node-id="9" stroke="#555555" stroke-linecap="butt" stroke-width="7.1685357" target-height="137.93991" target-width="501.15625" target-x="635.0426" target-y="396.6921"></path><path d="M 1121.07 568.74 L 1123.99 568.87 L 1126.71 569.55 L 1129.22 570.73 L 1131.43 572.35 L 1133.30 574.37 L 1134.76 576.73 L 1135.74 579.35 L 1136.20 582.24 L 1136.19 584.02 L 1135.96 585.79 L 1135.96 585.79 L 1114.71 695.08 L 1114.00 697.52 L 1112.92 699.73 L 1111.49 701.71 L 1109.75 703.40 L 1107.76 704.78 L 1105.55 705.81 L 1103.17 706.45 L 1100.63 706.68 L 1100.63 706.68 L 649.38 706.68 L 646.47 706.38 L 643.80 705.55 L 641.36 704.23 L 639.24 702.48 L 637.49 700.36 L 636.17 697.92 L 635.34 695.25 L 635.04 692.34 L 635.04 692.34 L 635.04 609.91 L 635.32 607.11 L 636.09 604.52 L 637.32 602.15 L 638.96 600.06 L 640.95 598.31 L 643.25 596.94 L 645.79 596.02 L 648.57 595.59 L 648.57 595.59 Z" fill="#ffffff" fill-rule="evenodd" group-id="1,2" id="矩形备份-3" node-id="10" stroke="#555555" stroke-linecap="butt" stroke-width="7.1685357" target-height="137.93994" target-width="501.15625" target-x="635.0426" target-y="568.73694"></path><path d="M 1168.96 723.83 L 1168.61 732.01 L 1167.65 739.91 L 1166.09 747.56 L 1163.93 754.98 L 1161.19 762.24 L 1157.94 769.16 L 1154.20 775.75 L 1149.95 782.04 L 1145.22 787.99 L 1140.10 793.52 L 1134.57 798.65 L 1128.61 803.38 L 1122.33 807.63 L 1115.73 811.37 L 1108.82 814.62 L 1101.56 817.37 L 1094.15 819.53 L 1086.50 821.09 L 1078.60 822.05 L 1070.42 822.39 L 1062.23 822.05 L 1054.33 821.09 L 1046.69 819.53 L 1039.27 817.37 L 1032.01 814.62 L 1025.10 811.37 L 1018.51 807.63 L 1012.22 803.38 L 1006.27 798.65 L 1000.74 793.52 L 995.62 787.99 L 990.89 782.04 L 986.63 775.75 L 982.89 769.16 L 979.65 762.24 L 976.90 754.98 L 974.74 747.56 L 973.18 739.91 L 972.22 732.01 L 971.88 723.83 L 972.22 715.64 L 973.18 707.74 L 974.74 700.09 L 976.90 692.67 L 979.65 685.41 L 982.89 678.50 L 986.63 671.90 L 990.89 665.61 L 995.62 659.66 L 1000.74 654.13 L 1006.27 649.00 L 1012.22 644.28 L 1018.51 640.02 L 1025.10 636.28 L 1032.01 633.03 L 1039.27 630.28 L 1046.69 628.13 L 1054.33 626.56 L 1062.23 625.61 L 1070.42 625.26 L 1078.60 625.61 L 1086.50 626.56 L 1094.15 628.13 L 1101.56 630.28 L 1108.82 633.03 L 1115.73 636.28 L 1122.33 640.02 L 1128.61 644.28 L 1134.57 649.00 L 1140.10 654.13 L 1145.22 659.66 L 1149.95 665.61 L 1154.20 671.90 L 1157.94 678.50 L 1161.19 685.41 L 1163.93 692.67 L 1166.09 700.09 L 1167.65 707.74 L 1168.61 715.64 L 1168.96 723.83 Z" fill="#ffffff" fill-rule="evenodd" group-id="1,2" id="椭圆形" node-id="11" stroke="none" target-height="197.13477" target-width="197.08337" target-x="971.875" target-y="625.25854"></path><path d="M 346.20 167.66 L 1276.57 139.20 L 1280.02 139.33 L 1283.28 139.89 L 1286.39 140.87 L 1289.34 142.24 L 1292.05 143.95 L 1294.52 146.00 L 1296.72 148.34 L 1298.59 150.94 L 1300.14 153.80 L 1301.31 156.85 L 1302.07 160.07 L 1302.41 163.51 L 1302.42 164.27 L 1302.42 309.84 L 1302.42 309.84 L 298.21 299.16 L 304.61 207.65 L 305.11 203.53 L 305.95 199.59 L 307.13 195.82 L 308.66 192.21 L 311.19 187.62 L 314.20 183.45 L 317.71 179.65 L 321.64 176.30 L 325.93 173.45 L 330.61 171.10 L 334.28 169.72 L 338.09 168.68 L 342.06 168.00 L 346.20 167.66 Z" fill="#f4f4f4" fill-rule="evenodd" group-id="1,2" id="矩形" node-id="12" stroke="none" target-height="170.64764" target-width="1004.2139" target-x="298.2083" target-y="139.19534"></path><path d="M 972.73 216.50 L 970.40 218.86 L 968.72 220.98 L 967.34 223.23 L 966.23 225.63 L 965.41 228.14 L 964.91 230.72 L 964.71 233.39 L 964.90 236.49 L 965.46 239.40 L 966.38 242.14 L 967.68 244.74 L 969.30 247.16 L 971.18 249.31 L 973.32 251.21 L 975.75 252.88 L 978.36 254.21 L 981.12 255.19 L 984.07 255.81 L 987.22 256.08 L 988.82 256.03 L 991.55 255.60 L 994.29 254.80 L 997.07 253.61 L 1001.01 251.32 L 1004.70 248.48 L 1008.00 245.23 L 1010.73 241.79 L 1012.27 239.32 L 1013.41 236.96 L 1014.19 234.68 L 1014.80 231.19 L 1014.81 227.98 L 1014.25 225.00 L 1013.19 222.15 L 1011.70 219.56 L 1009.76 217.19 L 1007.49 215.11 L 1004.93 213.32 L 1002.04 211.83 L 998.99 210.69 L 995.78 209.93 L 992.41 209.53 L 989.02 209.54 L 985.62 209.99 L 982.20 210.89 L 978.93 212.23 L 975.78 214.09 L 972.73 216.50 Z M 1007.30 232.94 L 1006.34 235.37 L 1004.68 238.06 L 1002.59 240.62 L 1000.06 243.09 L 997.26 245.27 L 994.34 247.03 L 991.29 248.29 L 988.43 248.87 L 987.18 248.91 L 984.37 248.62 L 981.80 247.89 L 979.42 246.73 L 977.25 245.19 L 975.43 243.35 L 973.91 241.19 L 972.78 238.82 L 972.11 236.26 L 971.88 233.48 L 972.16 230.78 L 972.92 228.20 L 974.13 225.79 L 975.78 223.60 L 977.62 221.75 L 980.21 219.78 L 982.86 218.32 L 985.61 217.35 L 988.48 216.80 L 991.29 216.65 L 994.05 216.90 L 996.75 217.51 L 999.22 218.43 L 1001.48 219.65 L 1003.52 221.19 L 1005.17 222.93 L 1006.46 224.89 L 1007.32 227.05 L 1007.69 229.36 L 1007.53 231.90 L 1007.30 232.94 Z" fill="#555555" fill-rule="nonzero" group-id="1,2" id="路径-3" node-id="13" stroke="none" target-height="46.55136" target-width="50.096436" target-x="964.7102" target-y="209.52762"></path><path d="M 1087.39 216.50 L 1085.06 218.86 L 1083.39 220.98 L 1082.00 223.23 L 1080.90 225.63 L 1080.08 228.14 L 1079.58 230.72 L 1079.38 233.39 L 1079.57 236.49 L 1080.13 239.40 L 1081.05 242.14 L 1082.34 244.74 L 1083.97 247.16 L 1085.85 249.31 L 1087.99 251.21 L 1090.42 252.88 L 1093.03 254.21 L 1095.79 255.19 L 1098.73 255.81 L 1101.89 256.08 L 1103.48 256.03 L 1106.21 255.60 L 1108.96 254.80 L 1111.74 253.61 L 1115.68 251.32 L 1119.37 248.48 L 1122.67 245.23 L 1125.40 241.79 L 1126.93 239.32 L 1128.07 236.96 L 1128.86 234.68 L 1129.47 231.19 L 1129.47 227.98 L 1128.92 225.00 L 1127.85 222.15 L 1126.36 219.56 L 1124.43 217.19 L 1122.16 215.11 L 1119.59 213.32 L 1116.71 211.83 L 1113.65 210.69 L 1110.45 209.93 L 1107.08 209.53 L 1103.68 209.54 L 1100.29 209.99 L 1096.86 210.89 L 1093.60 212.23 L 1090.45 214.09 L 1087.39 216.50 Z M 1121.96 232.94 L 1121.01 235.37 L 1119.35 238.06 L 1117.26 240.62 L 1114.73 243.09 L 1111.93 245.27 L 1109.01 247.03 L 1105.96 248.29 L 1103.09 248.87 L 1101.85 248.91 L 1099.04 248.62 L 1096.47 247.89 L 1094.08 246.73 L 1091.92 245.19 L 1090.09 243.35 L 1088.58 241.19 L 1087.45 238.82 L 1086.77 236.26 L 1086.54 233.48 L 1086.83 230.78 L 1087.59 228.20 L 1088.80 225.79 L 1090.45 223.60 L 1092.29 221.75 L 1094.88 219.78 L 1097.53 218.32 L 1100.28 217.35 L 1103.15 216.80 L 1105.95 216.65 L 1108.71 216.90 L 1111.42 217.51 L 1113.89 218.43 L 1116.15 219.65 L 1118.19 221.19 L 1119.84 222.93 L 1121.12 224.89 L 1121.99 227.05 L 1122.35 229.36 L 1122.20 231.90 L 1121.96 232.94 Z" fill="#555555" fill-rule="nonzero" group-id="1,2" id="路径-3备份" node-id="14" stroke="none" target-height="46.55136" target-width="50.096313" target-x="1079.377" target-y="209.52762"></path><path d="M 1199.62 214.00 L 1196.96 216.72 L 1195.05 219.16 L 1193.46 221.76 L 1192.20 224.53 L 1191.27 227.42 L 1190.69 230.40 L 1190.46 233.48 L 1190.66 237.04 L 1191.31 240.39 L 1192.38 243.57 L 1193.86 246.59 L 1195.68 249.34 L 1197.86 251.86 L 1200.34 254.08 L 1203.06 255.96 L 1206.07 257.50 L 1209.25 258.65 L 1212.61 259.37 L 1216.19 259.66 L 1218.01 259.60 L 1221.13 259.11 L 1224.26 258.19 L 1227.44 256.82 L 1230.48 255.12 L 1233.38 253.16 L 1236.16 250.90 L 1238.75 248.42 L 1241.04 245.84 L 1243.05 243.17 L 1244.81 240.33 L 1246.11 237.60 L 1247.01 234.97 L 1247.60 231.91 L 1247.79 229.05 L 1247.61 226.36 L 1247.08 223.81 L 1245.86 220.52 L 1244.16 217.52 L 1241.95 214.79 L 1239.35 212.39 L 1236.42 210.33 L 1233.12 208.60 L 1229.63 207.29 L 1225.97 206.41 L 1222.12 205.95 L 1218.24 205.96 L 1214.36 206.48 L 1210.45 207.52 L 1206.72 209.06 L 1203.12 211.21 L 1199.62 214.00 Z M 1240.13 232.97 L 1239.45 234.92 L 1238.42 237.00 L 1236.99 239.24 L 1234.48 242.37 L 1231.45 245.38 L 1228.09 248.05 L 1224.58 250.19 L 1222.11 251.32 L 1219.76 252.06 L 1217.49 252.45 L 1215.99 252.49 L 1212.63 252.14 L 1209.54 251.25 L 1206.67 249.83 L 1204.08 247.95 L 1201.89 245.70 L 1200.07 243.06 L 1198.72 240.16 L 1197.90 237.04 L 1197.63 233.63 L 1197.97 230.33 L 1198.88 227.18 L 1200.34 224.24 L 1202.32 221.56 L 1204.52 219.30 L 1207.63 216.88 L 1210.81 215.11 L 1214.11 213.93 L 1217.56 213.25 L 1220.92 213.07 L 1224.23 213.36 L 1227.48 214.11 L 1230.44 215.23 L 1233.15 216.73 L 1235.60 218.61 L 1237.58 220.74 L 1239.12 223.14 L 1240.16 225.77 L 1240.60 228.60 L 1240.41 231.70 L 1240.13 232.97 Z" fill="#555555" fill-rule="nonzero" group-id="1,2" id="路径-3备份-2" node-id="15" stroke="none" target-height="53.71309" target-width="57.331543" target-x="1190.4604" target-y="205.95015"></path><path d="M 298.21 309.84 L 1351.71 324.18" fill="none" group-id="1,2" id="路径-15" node-id="16" stroke="#555555" stroke-linecap="butt" stroke-width="7.1685357" target-height="14.337067" target-width="1053.5" target-x="298.2083" target-y="309.843"></path><path d="M 442.08 410.20 L 447.22 410.45 L 452.16 411.15 L 456.92 412.27 L 461.52 413.83 L 465.99 415.81 L 470.19 418.13 L 474.15 420.81 L 477.88 423.85 L 481.32 427.21 L 484.43 430.84 L 487.22 434.75 L 489.69 438.96 L 491.76 443.36 L 493.42 447.96 L 494.66 452.79 L 495.50 457.86 L 495.50 457.86 L 503.23 525.48 L 503.56 531.06 L 503.36 536.45 L 502.64 541.67 L 501.40 546.76 L 499.67 551.72 L 497.51 556.41 L 494.92 560.84 L 491.90 565.04 L 488.49 568.94 L 484.75 572.46 L 480.67 575.62 L 476.23 578.43 L 471.55 580.79 L 466.63 582.67 L 461.43 584.07 L 455.91 585.01 L 454.50 585.15 L 454.50 585.15 L 434.24 586.92 L 428.65 587.11 L 423.27 586.77 L 418.07 585.91 L 413.02 584.54 L 408.10 582.67 L 403.47 580.39 L 399.11 577.68 L 394.99 574.55 L 391.19 571.04 L 387.77 567.21 L 384.72 563.05 L 382.02 558.53 L 379.79 553.79 L 378.04 548.82 L 376.77 543.58 L 375.99 538.05 L 375.80 534.78 L 375.82 531.50 L 375.82 531.50 L 378.22 462.11 L 378.69 456.67 L 379.65 451.49 L 381.07 446.54 L 382.97 441.78 L 385.32 437.21 L 388.04 432.95 L 391.12 428.98 L 394.60 425.30 L 398.40 421.95 L 402.47 419.00 L 406.82 416.43 L 411.48 414.24 L 416.30 412.51 L 421.30 411.26 L 426.51 410.49 L 431.95 410.20 L 431.95 410.20 Z" fill="none" group-id="1,2" id="矩形备份" node-id="17" stroke="#3681fd" stroke-linecap="butt" stroke-width="35.842678" target-height="176.90793" target-width="127.75958" target-x="375.80408" target-y="410.20248"></path><path d="M 275.50 504.03 L 598.00 530.43 L 599.81 530.82 L 601.36 531.58 L 602.69 532.71 L 603.71 534.13 L 604.34 535.73 L 604.58 537.57 L 604.58 723.00 L 604.33 724.86 L 603.69 726.47 L 602.66 727.90 L 601.31 729.03 L 599.74 729.78 L 597.91 730.16 L 275.41 752.43 L 273.48 752.30 L 271.74 751.70 L 270.21 750.68 L 268.99 749.31 L 268.16 747.67 L 267.77 745.77 L 267.75 745.28 L 267.75 511.17 L 268.01 509.25 L 268.73 507.55 L 269.85 506.10 L 271.30 504.98 L 273.00 504.26 L 274.92 504.00 L 275.50 504.03 Z" fill="#3681fd" fill-rule="evenodd" group-id="1,2" id="矩形" node-id="18" stroke="none" target-height="248.42316" target-width="336.8333" target-x="267.75" target-y="504.0042"></path><path d="M 480.96 643.61 L 480.72 647.06 L 480.06 650.30 L 478.99 653.38 L 477.52 656.29 L 475.73 658.94 L 473.61 661.35 L 471.20 663.48 L 468.55 665.26 L 465.64 666.73 L 462.56 667.80 L 459.32 668.46 L 455.88 668.70 L 452.43 668.46 L 449.19 667.80 L 446.11 666.73 L 443.20 665.26 L 440.55 663.48 L 438.14 661.35 L 436.02 658.94 L 434.23 656.29 L 432.76 653.38 L 431.69 650.30 L 431.03 647.06 L 430.79 643.61 L 431.03 640.16 L 431.69 636.92 L 432.76 633.84 L 434.23 630.93 L 436.02 628.28 L 438.14 625.87 L 440.55 623.74 L 443.20 621.96 L 446.11 620.49 L 449.19 619.42 L 452.43 618.76 L 455.88 618.52 L 459.32 618.76 L 462.56 619.42 L 465.64 620.49 L 468.55 621.96 L 471.20 623.74 L 473.61 625.87 L 475.73 628.28 L 477.52 630.93 L 478.99 633.84 L 480.06 636.92 L 480.72 640.16 L 480.96 643.61 Z" fill="#ffffff" fill-rule="evenodd" group-id="1,2" id="椭圆形" node-id="19" stroke="none" target-height="50.17975" target-width="50.166687" target-x="430.79166" target-y="618.52014"></path><path d="M 445.84 653.14 L 466.38 653.14 L 473.52 710.85 L 441.26 710.85 Z" fill="#ffffff" fill-rule="evenodd" group-id="1,2" id="矩形" node-id="20" stroke="none" target-height="57.711487" target-width="32.264313" target-x="441.25882" target-y="653.1394"></path><g node-id="29"><path d="M 1122.48 624.85 L 1151.04 643.52 L 1030.98 808.24 L 989.79 786.21 Z" fill="#ff3838" fill-rule="nonzero" group-id="1,2,3" id="路径" node-id="22" stroke="none" target-height="183.38275" target-width="161.25006" target-x="989.7917" target-y="624.8537"></path><path d="M 1065.04 833.15 L 1056.86 832.86 L 1048.91 832.05 L 1041.16 830.74 L 1033.61 828.92 L 1026.16 826.60 L 1018.98 823.83 L 1012.05 820.64 L 1005.36 817.00 L 998.91 812.93 L 992.77 808.49 L 986.95 803.69 L 981.43 798.50 L 976.24 792.98 L 971.44 787.15 L 967.01 781.02 L 962.94 774.56 L 959.30 767.87 L 956.10 760.94 L 953.34 753.76 L 951.02 746.31 L 949.20 738.75 L 947.88 731.00 L 947.08 723.05 L 946.79 714.87 L 947.08 706.68 L 947.88 698.73 L 949.20 690.98 L 951.02 683.42 L 953.34 675.97 L 956.10 668.79 L 959.30 661.86 L 962.94 655.17 L 967.01 648.71 L 971.44 642.58 L 976.24 636.75 L 981.43 631.23 L 986.95 626.04 L 992.77 621.24 L 998.91 616.80 L 1005.36 612.73 L 1012.05 609.09 L 1018.98 605.90 L 1026.16 603.13 L 1033.61 600.81 L 1041.16 598.99 L 1048.91 597.68 L 1056.86 596.87 L 1065.04 596.58 L 1073.22 596.87 L 1081.18 597.68 L 1088.92 598.99 L 1096.48 600.81 L 1103.93 603.13 L 1111.11 605.90 L 1118.03 609.09 L 1124.72 612.73 L 1131.18 616.80 L 1137.31 621.24 L 1143.13 626.04 L 1148.66 631.23 L 1153.84 636.75 L 1158.65 642.58 L 1163.08 648.71 L 1167.15 655.17 L 1170.79 661.86 L 1173.98 668.79 L 1176.74 675.97 L 1179.07 683.42 L 1180.89 690.98 L 1182.20 698.73 L 1183.00 706.68 L 1183.29 714.87 L 1183.00 723.05 L 1182.20 731.00 L 1180.89 738.75 L 1179.07 746.31 L 1176.74 753.76 L 1173.98 760.94 L 1170.79 767.87 L 1167.15 774.56 L 1163.08 781.02 L 1158.65 787.15 L 1153.84 792.98 L 1148.66 798.50 L 1143.13 803.69 L 1137.31 808.49 L 1131.18 812.93 L 1124.72 817.00 L 1118.03 820.64 L 1111.11 823.83 L 1103.93 826.60 L 1096.48 828.92 L 1088.92 830.74 L 1081.18 832.05 L 1073.22 832.86 L 1065.04 833.15 Z M 1065.04 808.24 L 1071.54 808.06 L 1077.91 807.53 L 1084.16 806.64 L 1090.29 805.42 L 1096.35 803.82 L 1102.22 801.89 L 1107.90 799.60 L 1113.42 796.97 L 1118.75 793.98 L 1123.83 790.65 L 1128.68 786.96 L 1133.31 782.91 L 1137.62 778.56 L 1141.64 773.85 L 1145.37 768.75 L 1148.83 763.25 L 1151.85 757.51 L 1154.35 751.77 L 1156.35 746.04 L 1157.87 740.28 L 1158.99 734.39 L 1159.71 728.51 L 1160.04 722.63 L 1159.98 716.72 L 1159.37 708.87 L 1158.22 701.05 L 1156.52 693.26 L 1154.35 685.57 L 1151.79 678.01 L 1148.83 670.56 L 1146.76 666.24 L 1144.37 662.20 L 1141.67 658.43 L 1138.65 654.91 L 1134.20 650.59 L 1129.29 646.67 L 1123.91 643.15 L 1118.24 640.07 L 1112.23 637.37 L 1105.88 635.04 L 1099.38 633.12 L 1092.70 631.56 L 1085.83 630.35 L 1078.91 629.51 L 1071.98 629.01 L 1065.04 628.84 L 1057.15 629.10 L 1049.82 629.79 L 1043.02 630.90 L 1036.70 632.39 L 1030.83 634.25 L 1025.38 636.46 L 1020.30 639.02 L 1015.31 642.09 L 1010.65 645.50 L 1006.31 649.28 L 1002.28 653.43 L 998.54 657.97 L 995.10 662.92 L 991.94 668.32 L 988.85 674.62 L 986.08 681.45 L 983.63 688.85 L 981.53 696.85 L 979.79 705.51 L 978.44 714.87 L 977.88 721.51 L 977.75 727.88 L 978.03 734.00 L 978.72 739.87 L 979.80 745.52 L 981.73 752.56 L 984.19 759.18 L 987.18 765.41 L 990.70 771.30 L 994.75 776.86 L 999.23 782.00 L 1004.17 786.73 L 1009.58 791.08 L 1015.33 794.94 L 1021.45 798.34 L 1027.95 801.28 L 1034.89 803.76 L 1041.94 805.68 L 1049.29 807.07 L 1056.98 807.93 L 1065.04 808.24 Z" fill="#ff3838" fill-rule="nonzero" group-id="1,2,3" id="形状" node-id="23" stroke="none" target-height="236.5617" target-width="236.50006" target-x="946.7917" target-y="596.5844"></path></g></g></g></svg>