<svg xmlns="http://www.w3.org/2000/svg" xmlns:xlink="http://www.w3.org/1999/xlink" width="13.989013671875" height="14" viewBox="0 0 13.989013671875 14" fill="none">
<path d="M12.9842 3.98946L8.77335 3.98946L8.77335 1.00482C8.77335 0.4506 8.32432 0 7.76853 0L6.24246 0C5.68824 0 5.23764 0.4506 5.23764 1.00482L5.23764 3.98946L1.00482 3.98946C0.4506 3.98946 0 4.44006 0 4.99428L0 6.52035C0 7.07458 0.4506 7.52518 1.00482 7.52518L12.9842 7.52518C13.5384 7.52518 13.989 7.07458 13.989 6.52035L13.989 4.99428C13.989 4.44006 13.5384 3.98946 12.9842 3.98946ZM0.987552 12.43C0.987552 13.2966 1.69093 14 2.55759 14L3.62207 14L3.62207 12.0202C3.62207 11.7423 3.84659 11.5178 4.12448 11.5178C4.40238 11.5178 4.62689 11.7423 4.62689 12.0202L4.62689 14L6.5125 14L6.5125 12.0202C6.5125 11.7423 6.73702 11.5178 7.01492 11.5178C7.29281 11.5178 7.51733 11.7423 7.51733 12.0202L7.51733 14L9.40294 14L9.40294 12.0202C9.40294 11.7423 9.62745 11.5178 9.90535 11.5178C10.1832 11.5178 10.4078 11.7423 10.4078 12.0202L10.4078 14L11.4817 14C12.3483 14 13.0517 13.2966 13.0517 12.43L13.0517 8.53157L0.987552 8.53157L0.987552 12.43Z"   fill="#7D8592" >
</path>
</svg>
