<svg xmlns="http://www.w3.org/2000/svg" xmlns:xlink="http://www.w3.org/1999/xlink" width="15.298149108886719" height="14.07571029663086" viewBox="0 0 15.298149108886719 14.07571029663086" fill="none">
<path d="M6.14951 7.47788C6.45236 7.78071 6.94351 7.78071 7.24636 7.47788L12.7014 4.34972C13.0042 4.04687 13.0042 3.55573 12.7014 3.25289L7.42465 0.302845C7.1218 -1.33365e-06 6.63067 -1.33365e-06 6.32782 0.302845L0.872772 3.43098C0.569926 3.73383 0.569926 4.22498 0.872772 4.52783L6.14951 7.47788Z"   fill="#7D8592" >
</path>
<path d="M0.45038 7.25173L5.66495 10.4224C5.94654 10.6689 6.29913 10.7921 6.65175 10.7921C7.00556 10.7921 7.35935 10.668 7.64148 10.4198L9.28665 9.39827C9.26099 9.2282 9.24816 9.05717 9.24814 8.88517C9.24814 8.41095 9.34523 7.95936 9.52024 7.54905L6.74709 9.27077L6.68802 9.32985C6.68682 9.33105 6.68555 9.33219 6.68424 9.33326C6.68295 9.33433 6.68158 9.33533 6.68018 9.33626C6.67877 9.3372 6.67731 9.33806 6.67583 9.33885C6.67434 9.33965 6.6728 9.34037 6.67123 9.34103C6.66968 9.34167 6.66809 9.34224 6.66646 9.34272C6.66486 9.34321 6.66322 9.34362 6.66156 9.34395C6.6599 9.34428 6.65822 9.34452 6.65653 9.34469C6.65486 9.34487 6.65316 9.34495 6.65149 9.34495C6.64978 9.34495 6.6481 9.34487 6.64641 9.34469C6.64473 9.34452 6.64307 9.34428 6.64141 9.34395C6.63974 9.34362 6.63811 9.34321 6.63649 9.34272C6.63487 9.34224 6.63328 9.34167 6.63172 9.34103C6.63015 9.34037 6.62861 9.33965 6.62711 9.33885C6.62562 9.33806 6.62419 9.3372 6.62279 9.33626C6.62137 9.33533 6.62001 9.33433 6.6187 9.33326C6.61738 9.33219 6.61614 9.33105 6.61495 9.32985L6.55345 9.26835L1.20257 6.01461C0.861028 5.80695 0.415655 5.91544 0.207827 6.25699C-2.57045e-06 6.59853 0.108835 7.04408 0.45038 7.25173Z"   fill="#7D8592" >
</path>
<path d="M9.76122 10.6832L6.74744 12.5542L6.68836 12.6133C6.68717 12.6145 6.68591 12.6156 6.68459 12.6167C6.6833 12.6178 6.68193 12.6188 6.68052 12.6197C6.67912 12.6206 6.67767 12.6215 6.67616 12.6223C6.67468 12.6231 6.67316 12.6238 6.67159 12.6245C6.67003 12.6251 6.66844 12.6257 6.66682 12.6262C6.66519 12.6267 6.66355 12.6271 6.66189 12.6274C6.66023 12.6277 6.65858 12.628 6.65688 12.6281C6.65521 12.6283 6.65351 12.6284 6.65182 12.6284C6.65013 12.6284 6.64845 12.6283 6.64676 12.6281C6.64508 12.628 6.64341 12.6277 6.64175 12.6274C6.64009 12.6271 6.63845 12.6267 6.63683 12.6262C6.63522 12.6257 6.63363 12.6251 6.63206 12.6245C6.6305 12.6238 6.62897 12.6231 6.62746 12.6223C6.62598 12.6215 6.62454 12.6206 6.62313 12.6197C6.62171 12.6188 6.62036 12.6178 6.61905 12.6167C6.61774 12.6156 6.61649 12.6145 6.61528 12.6133L6.55378 12.5518L1.20257 9.29823C0.861029 9.09057 0.415656 9.19906 0.207828 9.54061C-1.19209e-06 9.88215 0.108664 10.3275 0.450208 10.5354L5.66476 13.706C5.94636 13.9525 6.29896 14.0757 6.65156 14.0757C7.00537 14.0757 7.35918 13.9517 7.6413 13.7034L10.7993 11.7428C10.7471 11.7088 10.6959 11.6733 10.6456 11.6365C10.5953 11.5997 10.5461 11.5616 10.4979 11.5221C10.4497 11.4826 10.4026 11.4418 10.3566 11.3997C10.3107 11.3576 10.2659 11.3144 10.2223 11.2698C10.1787 11.2253 10.1363 11.1797 10.0952 11.1328C10.0541 11.086 10.0142 11.0381 9.97572 10.9891C9.93723 10.9401 9.90009 10.8901 9.86431 10.8391C9.82853 10.7881 9.79417 10.7361 9.76122 10.6832ZM15.0931 11.1143L13.974 9.99531C14.1851 9.65515 14.3072 9.25417 14.3072 8.82452C14.3072 7.59638 13.3116 6.60077 12.0835 6.60077C10.8553 6.60077 9.8597 7.59638 9.8597 8.82452C9.8597 10.0527 10.8553 11.0483 12.0835 11.0483C12.5014 11.0483 12.8921 10.9329 13.2261 10.7323L14.3506 11.8568C14.5556 12.0619 14.888 12.0619 15.0931 11.8568C15.2982 11.6517 15.2982 11.3193 15.0931 11.1143ZM12.0836 10.1691C11.3421 10.1691 10.7389 9.56583 10.7389 8.82435C10.7389 8.08287 11.3421 7.47959 12.0836 7.47959C12.8251 7.47959 13.4284 8.08287 13.4284 8.82435C13.4284 9.56583 12.8251 10.1691 12.0836 10.1691Z"   fill="#7D8592" >
</path>
</svg>
