<svg xmlns="http://www.w3.org/2000/svg" xmlns:xlink="http://www.w3.org/1999/xlink" width="14" height="14" viewBox="0 0 14 14" fill="none">
<path d="M7 0C3.134 0 0 3.134 0 7C0 10.866 3.134 14 7 14C10.866 14 14 10.866 14 7C14 3.134 10.866 0 7 0ZM2.09922 6.96254L3.46644 6.96254C3.46644 4.83523 5.0631 3.16366 7.11394 3.24013C7.79755 3.24013 8.40624 3.468 9.01338 3.77235L8.32977 4.45596C7.94894 4.30301 7.4932 4.15162 7.03746 4.15162C5.59376 4.15162 4.37793 5.36745 4.37793 6.96254L5.74515 6.96254L3.92218 8.86198L2.09922 6.96254ZM10.532 6.96098C10.532 9.01182 8.9369 10.7599 6.96098 10.7599C6.27737 10.7599 5.66867 10.4571 5.06154 10.1527L5.74515 9.46912C6.12598 9.62207 6.58172 9.77347 7.03746 9.77347C8.48116 9.77347 9.69699 8.55764 9.69699 6.96254L8.25329 6.96254L10.0778 5.0631L11.9008 6.96098L10.532 6.96098Z"   fill="#7D8592" >
</path>
</svg>
