<svg xmlns="http://www.w3.org/2000/svg" xmlns:xlink="http://www.w3.org/1999/xlink" width="14" height="14" viewBox="0 0 14 14" fill="none">
<path d="M10.5 0L1.16667 0C0.525 0 0 0.525 0 1.16667L0 12.8333C0 13.475 0.525 14 1.16667 14L12.8333 14C13.475 14 14 13.475 14 12.8333L14 3.5L10.5 0ZM2.33333 2.33333L8.16667 2.33333L8.16667 4.66667L2.33333 4.66667L2.33333 2.33333ZM7 11.6667C5.71667 11.6667 4.66667 10.6167 4.66667 9.33333C4.66667 8.05 5.71667 7 7 7C8.28333 7 9.33333 8.05 9.33333 9.33333C9.33333 10.6167 8.28333 11.6667 7 11.6667Z"   fill="#7D8592" >
</path>
</svg>
