<svg width="1em" height="1em" viewBox="0 0 24 24" fill="none" xmlns="http://www.w3.org/2000/svg" data-icon="SpecialAttentionOutlined"><path d="M10 1.5a5 5 0 1 1-.002 10.002A5 5 0 0 1 10 1.5Zm-3 5a3.001 3.001 0 0 0 6 0 3.001 3.001 0 0 0-6 0Zm10.707 5.841a.8.8 0 0 0-1.415 0l-1.248 2.366a.8.8 0 0 1-.571.415l-2.636.456a.8.8 0 0 0-.438 1.346l1.865 1.919a.8.8 0 0 1 .218.671l-.38 2.648a.8.8 0 0 0 1.144.832l2.4-1.18a.8.8 0 0 1 .707 0l2.4 1.18a.8.8 0 0 0 1.146-.832l-.381-2.648a.8.8 0 0 1 .218-.671l1.865-1.919a.8.8 0 0 0-.438-1.346l-2.636-.456a.8.8 0 0 1-.571-.415l-1.248-2.366Zm1.354 5.817c-.23.257-.342.6-.306.943l.16 1.546-1.42-.631a1.222 1.222 0 0 0-.99 0l-1.42.63.16-1.545a1.221 1.221 0 0 0-.306-.943L13.9 17.002l1.52-.324a1.22 1.22 0 0 0 .802-.583L17 14.75l.778 1.345c.173.3.465.51.802.583l1.52.324-1.039 1.156ZM3.5 19c0-.346.045-.68.125-1 .445-1.725 2.01-3 3.875-3h2a.5.5 0 0 0 .5-.5v-1a.5.5 0 0 0-.5-.5h-2a6 6 0 0 0-6 6v1.5c0 1.1.4 1.5 1.5 1.5h6.5a.5.5 0 0 0 .5-.5v-1a.5.5 0 0 0-.5-.5h-6v-1Z" fill="currentColor"></path></svg>