<svg xmlns="http://www.w3.org/2000/svg" xmlns:xlink="http://www.w3.org/1999/xlink" width="306.6959991455078" height="47.839996337890625" viewBox="0 0 306.6959991455078 47.839996337890625" fill="none">
<g >
<path     fill="#000000"  d="M22.152 45.76L16.328 45.76L15.6 43.368L-3.09944e-06 47.788L-3.09944e-06 3.22401L7.436 3.22401L7.436 3.8147e-06L14.092 3.8147e-06L14.092 3.22401L21.736 3.22401L21.736 29.016L6.604 29.016L6.604 39.052L13.624 37.128L11.804 31.148L18.668 31.148L22.724 44.2Q24.18 39.936 24.778 35.62Q25.376 31.304 25.376 25.844L25.376 1.66401L44.72 1.66401L44.72 47.84L38.168 47.84L38.168 34.996L31.408 34.996Q30.576 41.964 28.496 47.84L21.268 47.84L22.152 45.76ZM15.184 22.932L15.184 19.032L6.604 19.032L6.604 22.932L15.184 22.932ZM15.184 13.208L15.184 9.36001L6.604 9.36001L6.604 13.208L15.184 13.208ZM38.168 28.496L38.168 21.84L31.876 21.84L31.876 25.844Q31.876 27.612 31.824 28.496L38.168 28.496ZM38.168 15.34L38.168 8.32001L31.876 8.32001L31.876 15.34L38.168 15.34ZM72.696 47.32Q67.964 47.32 64.766 46.774Q61.568 46.228 59.02 44.928Q58.396 47.216 58.188 47.84L51.012 47.84Q53.456 41.028 54.6 35.204Q55.744 29.38 56.004 22.62L49.816 22.62L49.816 15.86L62.764 15.86Q62.764 22.568 62.296 27.898Q61.828 33.228 60.684 38.532Q62.972 39.832 65.806 40.378Q68.64 40.924 72.696 40.924L98.176 40.924L98.176 47.32L72.696 47.32ZM58.968 1.04L62.556 12.324L55.536 12.324L51.948 1.04L58.968 1.04ZM65.26 11.232L72.748 11.232L71.084 7.85201L78 7.85201L79.664 11.232L83.2 11.232L85.28 6.968L65.26 6.968L65.26 1.04L95.368 1.04L90.324 11.232L96.616 11.232L96.616 39.364L89.96 39.364L89.96 34.268L84.032 34.268L84.032 39.364L77.792 39.364L77.792 34.268L71.916 34.268L71.916 39.364L65.26 39.364L65.26 11.232ZM77.792 28.808L77.792 25.636L71.916 25.636L71.916 28.808L77.792 28.808ZM77.792 20.176L77.792 17.004L71.916 17.004L71.916 20.176L77.792 20.176ZM89.96 28.808L89.96 25.636L84.032 25.636L84.032 28.808L89.96 28.808ZM89.96 20.176L89.96 17.004L84.032 17.004L84.032 20.176L89.96 20.176ZM102.856 13.936L122.824 13.936L122.824 11.232L125.268 11.232L125.268 7.592L125.372 7.54L120.432 7.54L122.304 12.376L115.284 12.376L113.412 7.592Q111.436 9.93201 108.732 11.596Q106.028 13.26 102.856 13.884L102.856 7.592Q107.796 5.408 110.032 1.30001L126.1 1.30001L126.1 7.17601Q130.416 5.04401 132.444 1.30001L149.656 1.30001L149.656 7.54L142.896 7.54L144.768 12.376L137.748 12.376L135.876 7.54Q133.276 10.608 129.688 12.376L129.688 13.936L149.656 13.936L149.656 25.116L143.26 25.116L143.26 33.904L114.556 33.904L114.556 35.724L146.64 35.724L146.64 47.84L107.796 47.84L107.796 25.116L102.856 25.116L102.856 13.936ZM142.896 21.788L142.896 19.552L109.616 19.552L109.616 21.788L142.896 21.788ZM139.88 43.004L139.88 40.56L114.556 40.56L114.556 43.004L139.88 43.004ZM136.5 29.016L136.5 26.728L114.556 26.728L114.556 29.016L136.5 29.016ZM190.32 27.768L190.32 31.252L200.564 31.252L200.564 37.336L190.32 37.336L190.32 41.08L202.02 41.08L202.02 47.268L171.756 47.268L171.756 42.64L154.596 45.5L154.596 38.844L160.004 37.96L160.004 25.48L155.584 25.48L155.584 18.928L160.004 18.928L160.004 8.89201L154.856 8.89201L154.856 2.236L171.028 2.236L171.028 8.89201L166.66 8.89201L166.66 18.928L170.612 18.928L170.612 25.48L166.66 25.48L166.66 36.816L171.756 35.984L171.756 41.08L183.456 41.08L183.456 37.336L173.16 37.336L173.16 31.252L183.456 31.252L183.456 27.768L173.992 27.768L173.992 1.87201L199.732 1.87201L199.732 27.768L190.32 27.768ZM183.924 21.632L183.924 17.68L180.44 17.68L180.44 21.632L183.924 21.632ZM183.924 11.908L183.924 7.95601L180.44 7.95601L180.44 11.908L183.924 11.908ZM193.284 21.632L193.284 17.68L189.852 17.68L189.852 21.632L193.284 21.632ZM193.284 11.908L193.284 7.95601L189.852 7.95601L189.852 11.908L193.284 11.908ZM207.48 46.384Q211.224 39.572 213.044 32.968L220.272 32.968Q218.504 39.832 215.332 46.384L207.48 46.384ZM207.792 24.596L220.116 24.596L222.976 21.632L210.652 18.096L210.652 10.452L216.528 12.272L220.792 7.80001Q212.992 7.90401 209.144 7.90401L209.144 1.45601Q229.632 1.45601 251.368 0.104004L251.368 6.5Q242.788 7.07201 230.672 7.54L223.808 14.56L228.488 16.016L234.104 10.296L244.556 10.296L230.568 24.596L244.4 24.596L241.852 17.472L249.028 17.472L253.812 30.94L233.636 30.94L233.636 47.84L226.876 47.84L226.876 30.94L207.792 30.94L207.792 24.596ZM247.468 32.968Q249.288 39.572 253.032 46.384L245.18 46.384Q242.008 39.832 240.24 32.968L247.468 32.968ZM264.108 22.776L258.024 19.656L265.824 1.04L272.688 1.04L266.344 15.964L268.164 16.848L269.932 12.48L276.172 12.48L269.256 29.068L275.756 29.068L275.756 35.568L258.752 35.568L264.108 22.776ZM258.856 40.82L275.756 38.584L275.756 45.292L258.856 47.528L258.856 40.82ZM274.768 47.84Q278.044 43.784 279.344 39.858Q280.644 35.932 280.644 30.836L280.644 27.508L287.3 27.508L287.3 30.836Q287.3 35.672 286.312 39.702Q285.324 43.732 283.088 47.84L274.768 47.84ZM275.912 3.22401L287.352 3.22401L287.352 0.520004L294.112 0.520004L294.112 3.22401L305.552 3.22401L305.552 9.776L291.148 9.776L286.676 18.72L296.14 18.72L293.8 12.636L300.56 12.636L305.396 25.272L276.432 25.272L276.432 18.72L279.344 18.72L283.816 9.776L275.912 9.776L275.912 3.22401ZM293.904 27.508L300.56 27.508L300.56 41.184L306.696 41.184L306.696 47.84L293.904 47.84L293.904 27.508Z">
</path>
</g>
</svg>
