<svg xmlns="http://www.w3.org/2000/svg" xmlns:xlink="http://www.w3.org/1999/xlink" width="127" height="22.0001220703125" viewBox="0 0 127 22.0001220703125" fill="none">
<g >
<path     fill="#000000"  d="M33.466 18.87L31.562 18.87L31.324 18.088L26.224 19.533L26.224 4.964L28.655 4.964L28.655 3.91L30.831 3.91L30.831 4.964L33.33 4.964L33.33 13.396L28.383 13.396L28.383 16.677L30.678 16.048L30.083 14.093L32.327 14.093L33.653 18.36Q34.129 16.966 34.3245 15.555Q34.52 14.144 34.52 12.359L34.52 4.454L40.844 4.454L40.844 19.55L38.702 19.55L38.702 15.351L36.492 15.351Q36.22 17.629 35.54 19.55L33.177 19.55L33.466 18.87ZM31.188 11.407L31.188 10.132L28.383 10.132L28.383 11.407L31.188 11.407ZM31.188 8.228L31.188 6.97L28.383 6.97L28.383 8.228L31.188 8.228ZM38.702 13.226L38.702 11.05L36.645 11.05L36.645 12.359Q36.645 12.937 36.628 13.226L38.702 13.226ZM38.702 8.925L38.702 6.63L36.645 6.63L36.645 8.925L38.702 8.925ZM49.99 19.38Q48.443 19.38 47.3975 19.2015Q46.352 19.023 45.519 18.598Q45.315 19.346 45.247 19.55L42.901 19.55Q43.7 17.323 44.074 15.419Q44.448 13.515 44.533 11.305L42.51 11.305L42.51 9.095L46.743 9.095Q46.743 11.288 46.59 13.0305Q46.437 14.773 46.063 16.507Q46.811 16.932 47.7375 17.1105Q48.664 17.289 49.99 17.289L58.32 17.289L58.32 19.38L49.99 19.38ZM45.502 4.25L46.675 7.939L44.38 7.939L43.207 4.25L45.502 4.25ZM47.559 7.582L50.007 7.582L49.463 6.477L51.724 6.477L52.268 7.582L53.424 7.582L54.104 6.188L47.559 6.188L47.559 4.25L57.402 4.25L55.753 7.582L57.81 7.582L57.81 16.779L55.634 16.779L55.634 15.113L53.696 15.113L53.696 16.779L51.656 16.779L51.656 15.113L49.735 15.113L49.735 16.779L47.559 16.779L47.559 7.582ZM51.656 13.328L51.656 12.291L49.735 12.291L49.735 13.328L51.656 13.328ZM51.656 10.506L51.656 9.469L49.735 9.469L49.735 10.506L51.656 10.506ZM55.634 13.328L55.634 12.291L53.696 12.291L53.696 13.328L55.634 13.328ZM55.634 10.506L55.634 9.469L53.696 9.469L53.696 10.506L55.634 10.506ZM59.85 8.466L66.378 8.466L66.378 7.582L67.177 7.582L67.177 6.392L67.211 6.375L65.596 6.375L66.208 7.956L63.913 7.956L63.301 6.392Q62.655 7.157 61.771 7.701Q60.887 8.245 59.85 8.449L59.85 6.392Q61.465 5.678 62.196 4.335L67.449 4.335L67.449 6.256Q68.86 5.559 69.523 4.335L75.15 4.335L75.15 6.375L72.94 6.375L73.552 7.956L71.257 7.956L70.645 6.375Q69.795 7.378 68.622 7.956L68.622 8.466L75.15 8.466L75.15 12.121L73.059 12.121L73.059 14.994L63.675 14.994L63.675 15.589L74.164 15.589L74.164 19.55L61.465 19.55L61.465 12.121L59.85 12.121L59.85 8.466ZM72.94 11.033L72.94 10.302L62.06 10.302L62.06 11.033L72.94 11.033ZM71.954 17.969L71.954 17.17L63.675 17.17L63.675 17.969L71.954 17.969ZM70.849 13.396L70.849 12.648L63.675 12.648L63.675 13.396L70.849 13.396ZM88.444 12.988L88.444 14.127L91.793 14.127L91.793 16.116L88.444 16.116L88.444 17.34L92.269 17.34L92.269 19.363L82.375 19.363L82.375 17.85L76.765 18.785L76.765 16.609L78.533 16.32L78.533 12.24L77.088 12.24L77.088 10.098L78.533 10.098L78.533 6.817L76.85 6.817L76.85 4.641L82.137 4.641L82.137 6.817L80.709 6.817L80.709 10.098L82.001 10.098L82.001 12.24L80.709 12.24L80.709 15.946L82.375 15.674L82.375 17.34L86.2 17.34L86.2 16.116L82.834 16.116L82.834 14.127L86.2 14.127L86.2 12.988L83.106 12.988L83.106 4.522L91.521 4.522L91.521 12.988L88.444 12.988ZM86.353 10.982L86.353 9.69L85.214 9.69L85.214 10.982L86.353 10.982ZM86.353 7.803L86.353 6.511L85.214 6.511L85.214 7.803L86.353 7.803ZM89.413 10.982L89.413 9.69L88.291 9.69L88.291 10.982L89.413 10.982ZM89.413 7.803L89.413 6.511L88.291 6.511L88.291 7.803L89.413 7.803ZM94.054 19.074Q95.278 16.847 95.873 14.688L98.236 14.688Q97.658 16.932 96.621 19.074L94.054 19.074ZM94.156 11.951L98.185 11.951L99.12 10.982L95.091 9.826L95.091 7.327L97.012 7.922L98.406 6.46Q95.856 6.494 94.598 6.494L94.598 4.386Q101.296 4.386 108.402 3.944L108.402 6.035Q105.597 6.222 101.636 6.375L99.392 8.67L100.922 9.146L102.758 7.276L106.175 7.276L101.602 11.951L106.124 11.951L105.291 9.622L107.637 9.622L109.201 14.025L102.605 14.025L102.605 19.55L100.395 19.55L100.395 14.025L94.156 14.025L94.156 11.951ZM107.127 14.688Q107.722 16.847 108.946 19.074L106.379 19.074Q105.342 16.932 104.764 14.688L107.127 14.688ZM112.567 11.356L110.578 10.336L113.128 4.25L115.372 4.25L113.298 9.129L113.893 9.418L114.471 7.99L116.511 7.99L114.25 13.413L116.375 13.413L116.375 15.538L110.816 15.538L112.567 11.356ZM110.85 17.255L116.375 16.524L116.375 18.717L110.85 19.448L110.85 17.255ZM116.052 19.55Q117.123 18.224 117.548 16.9405Q117.973 15.657 117.973 13.991L117.973 12.903L120.149 12.903L120.149 13.991Q120.149 15.572 119.826 16.8895Q119.503 18.207 118.772 19.55L116.052 19.55ZM116.426 4.964L120.166 4.964L120.166 4.08L122.376 4.08L122.376 4.964L126.116 4.964L126.116 7.106L121.407 7.106L119.945 10.03L123.039 10.03L122.274 8.041L124.484 8.041L126.065 12.172L116.596 12.172L116.596 10.03L117.548 10.03L119.01 7.106L116.426 7.106L116.426 4.964ZM122.308 12.903L124.484 12.903L124.484 17.374L126.49 17.374L126.49 19.55L122.308 19.55L122.308 12.903Z">
</path>
</g>
<path d="M13.3333 22.0001L13.3333 17.0001L5 17.0001L5 8.66675L0 8.66675L0 22.0001L13.3333 22.0001Z" fill-rule="evenodd"  fill="#01ABFF" >
</path>
<path d="M15.0001 7.00001L15.0001 15.3333L20.0001 15.3333L20.0001 2L6.66681 2L6.66681 7.00001L15.0001 7.00001Z" fill-rule="evenodd"  fill="#01ABFF" >
</path>
<path d="M4.58347 8.66675L4.58347 6.58342L6.66681 6.58342L6.66681 2.41675L0.416809 2.41675L0.416809 8.66675L4.58347 8.66675Z" fill-rule="evenodd"  fill="#6A9C37" >
</path>
<path d="M13.3332 17.4166L13.3332 21.5833L19.5832 21.5833L19.5832 15.3333L15.4165 15.3333L15.4165 17.4166L13.3332 17.4166Z" fill-rule="evenodd"  fill="#6A9C37" >
</path>
</svg>
