<svg xmlns="http://www.w3.org/2000/svg" xmlns:xlink="http://www.w3.org/1999/xlink" width="199.1179962158203" height="68" viewBox="0 0 199.1179962158203 68" fill="none">
<path d="M58 14L64 14L64 8L58 8L58 14Z"   fill="#AACD06" >
</path>
<path d="M52 10L57 10L57 5L52 5L52 10Z"   fill="#AACD06" >
</path>
<path d="M0 53L32.5 53L33.5 46L8.5 46L12.5 14.5L4.5 14.5L0 53Z"   fill="#005BAC" >
</path>
<path d="M42 53L46.5 14.5L25.5 14.5L24.5 22L38.5 22L34.5 53L42 53Z"   fill="#005BAC" >
</path>
<path d="M49 22L56 22L56 15L49 15L49 22Z"   fill="#AACD06" >
</path>
<path d="M54 53L62.5 53L64.5 33L72 53L77.5 53L90 33L87.5 53L95.5 53L99.5 14.5L91.5 14.5L76.5 39.5L66.5 14.5L58.5 14.5L54 53Z"   fill="#005BAC" >
</path>
<g >
<path     fill="#005BAC"  d="M134.534 53.486L136.91 51.542L138.476 40.094L134.21 40.094L132.32 53.486L124.004 53.486L129.296 16.118L149.816 16.118L145.064 49.922Q144.848 51.488 143.633 52.487Q142.418 53.486 140.852 53.486L134.534 53.486ZM121.52 39.554L122.762 53.378L115.256 53.378L115.04 51.002L101.81 53.324L106.67 18.71L112.664 18.71L112.934 16.766L111.422 14.714L122.006 14.714L121.412 18.71L127.568 18.71L124.868 38.15L112.07 38.15L110.882 46.574L114.554 45.872L114.014 39.554L121.52 39.554ZM134.858 35.45L139.124 35.45L139.88 30.212L135.614 30.212L134.858 35.45ZM136.262 25.568L140.528 25.568L141.176 20.978L136.91 20.978L136.262 25.568ZM118.55 33.56L118.982 30.59L112.988 30.59L112.556 33.56L118.55 33.56ZM119.576 26.432L120.008 23.462L114.014 23.462L113.582 26.432L119.576 26.432ZM182.756 24.326L185.132 24.326L189.182 20.762L171.74 20.762L172.442 15.632L199.118 15.632L198.254 21.788L195.338 24.326L198.902 24.326L196.472 41.66Q196.256 43.226 195.068 44.306Q193.88 45.386 192.314 45.386L186.212 45.386L189.128 42.848L189.344 41.282L185.78 41.282L185.24 45.386L178.058 45.386L178.598 41.282L174.98 41.282L174.44 45.386L167.258 45.386L170.174 24.326L173.522 24.326L172.604 21.788L181.838 21.788L182.756 24.326ZM151.868 52.568L154.622 47.438L157.214 28.97L155.162 28.97L155.918 23.84L167.204 23.84L164.18 45.224L171.578 47.438L196.688 47.438L195.986 52.568L167.258 52.568L161.966 51.002L161.102 52.568L151.868 52.568ZM165.26 15.632L167.474 21.788L159.266 21.788L157.052 15.632L165.26 15.632ZM176.384 31.022L180.056 31.022L180.326 28.97L176.708 28.97L176.384 31.022ZM175.574 37.178L179.192 37.178L179.462 35.126L175.844 35.126L175.574 37.178ZM186.374 37.178L189.884 37.178L190.208 35.126L186.644 35.126L186.374 37.178ZM187.508 28.97L187.238 31.022L190.748 31.022L191.072 28.97L187.508 28.97Z">
</path>
</g>
</svg>
